<svg xmlns="http://www.w3.org/2000/svg" version="1.1" xmlns:xlink="http://www.w3.org/1999/xlink" xmlns:svgjs="http://svgjs.dev/svgjs" width="2000" height="2000" viewBox="0 0 2000 2000"><g transform="matrix(1,0,0,1,-0.28443113772425477,-0.28443113772459583)"><svg viewBox="0 0 334 334" data-background-color="#ffffff" preserveAspectRatio="xMidYMid meet" height="2000" width="2000" xmlns="http://www.w3.org/2000/svg" xmlns:xlink="http://www.w3.org/1999/xlink"><g id="tight-bounds" transform="matrix(1,0,0,1,0.04749999999998522,0.04750000000001364)"><svg viewBox="0 0 333.90454557049503 333.90454557049503" height="333.90454557049503" width="333.90454557049503"><g><svg></svg></g><g><svg viewBox="0 0 333.90454557049503 333.90454557049503" height="333.90454557049503" width="333.90454557049503"><g><path d="M0 166.952c0-92.205 74.747-166.952 166.952-166.952 92.205 0 166.952 74.747 166.953 166.952 0 92.205-74.747 166.952-166.953 166.953-92.205 0-166.952-74.747-166.952-166.953zM166.952 331.846c91.068 0 164.894-73.825 164.894-164.894 0-91.068-73.825-164.894-164.894-164.893-91.068 0-164.894 73.825-164.893 164.893 0 91.068 73.825 164.894 164.893 164.894z" data-fill-palette-color="tertiary" fill="#f97316" stroke="transparent"></path><ellipse rx="160.27418187383762" ry="160.27418187383762" cx="166.95227278524752" cy="166.95227278524752" fill="#f97316" stroke="transparent" stroke-width="0" fill-opacity="1" data-fill-palette-color="tertiary"></ellipse></g><g transform="matrix(1,0,0,1,105.57052584286922,71.17305217166896)"><svg viewBox="0 0 122.76349388475658 191.55844122715712" height="191.55844122715712" width="122.76349388475658"><g><svg viewBox="0 0 122.76349388475658 191.55844122715712" height="191.55844122715712" width="122.76349388475658"><g><svg viewBox="0 0 213.1584412271571 332.60945451923885" height="191.55844122715712" width="122.76349388475658"><g transform="matrix(1,0,0,1,0,246.72950402482638)"><svg viewBox="0 0 213.1584412271571 85.87995049441247" height="85.87995049441247" width="213.1584412271571"><g id="textblocktransform"><svg viewBox="0 0 213.1584412271571 85.87995049441247" height="85.87995049441247" width="213.1584412271571" id="textblock"><g><svg viewBox="0 0 213.1584412271571 85.87995049441247" height="85.87995049441247" width="213.1584412271571"><g transform="matrix(1,0,0,1,0,0)"><svg width="213.1584412271571" viewBox="101.2 -35.2 193.59999999999997 74.70000000000002" height="85.87995049441247" data-palette-color="#ffffff"><svg></svg><svg></svg><g class="wordmark-text-0" data-fill-palette-color="quaternary" id="text-0"><path transform="translate(129.5,0)" d="M6.4-35h12.5c2.433 0 4.577 0.457 6.43 1.37 1.847 0.92 3.387 2.197 4.62 3.83 1.233 1.633 2.16 3.507 2.78 5.62 0.613 2.12 0.92 4.347 0.92 6.68v0c0 3.2-0.55 6.127-1.65 8.78-1.1 2.647-2.733 4.76-4.9 6.34-2.167 1.587-4.9 2.38-8.2 2.38v0h-12.5c-0.567 0-1.04-0.2-1.42-0.6-0.387-0.4-0.58-0.883-0.58-1.45v0-30.95c0-0.567 0.193-1.043 0.58-1.43 0.38-0.38 0.853-0.57 1.42-0.57zM8.25-3.9h10.15c2.567 0 4.66-0.617 6.28-1.85 1.613-1.233 2.797-2.883 3.55-4.95 0.747-2.067 1.12-4.333 1.12-6.8v0c0-1.8-0.207-3.527-0.62-5.18-0.42-1.647-1.07-3.103-1.95-4.37-0.887-1.267-2.02-2.267-3.4-3-1.387-0.733-3.047-1.1-4.98-1.1v0h-10.25l0.4-0.4v28.15zM51.05-29.85l1.1 0.05-11.75 28.6c-0.133 0.4-0.367 0.717-0.7 0.95-0.333 0.233-0.683 0.35-1.05 0.35v0c-0.633 0-1.1-0.167-1.4-0.5-0.3-0.333-0.45-0.733-0.45-1.2v0c-0.033-0.233 0-0.483 0.1-0.75v0l12.95-31.5c0.167-0.467 0.427-0.81 0.78-1.03 0.347-0.213 0.737-0.303 1.17-0.27v0c0.433 0 0.823 0.117 1.17 0.35 0.353 0.233 0.597 0.55 0.73 0.95v0l12.9 31.2c0.1 0.267 0.15 0.533 0.15 0.8v0c0 0.6-0.2 1.073-0.6 1.42-0.4 0.353-0.85 0.53-1.35 0.53v0c-0.4 0-0.767-0.117-1.1-0.35-0.333-0.233-0.583-0.567-0.75-1v0zM60.2-9.35h-17.3l1.7-3.9h14.85zM76.4-32.95v30.9c0 0.567-0.21 1.05-0.63 1.45-0.413 0.4-0.903 0.6-1.47 0.6v0c-0.633 0-1.133-0.2-1.5-0.6-0.367-0.4-0.55-0.883-0.55-1.45v0-30.9c0-0.6 0.2-1.093 0.6-1.48 0.4-0.38 0.9-0.57 1.5-0.57v0c0.567 0 1.05 0.19 1.45 0.57 0.4 0.387 0.6 0.88 0.6 1.48zM88.35-3.95h16.15c0.567 0 1.05 0.19 1.45 0.57 0.4 0.387 0.6 0.863 0.6 1.43v0c0 0.567-0.2 1.033-0.6 1.4-0.4 0.367-0.883 0.55-1.45 0.55v0h-17.3c-0.567 0-1.043-0.2-1.43-0.6-0.38-0.4-0.57-0.883-0.57-1.45v0-30.95c0-0.567 0.2-1.043 0.6-1.43 0.4-0.38 0.9-0.57 1.5-0.57v0c0.567 0 1.05 0.19 1.45 0.57 0.4 0.387 0.6 0.863 0.6 1.43v0 29.95zM130.6-35.2v0c0.567 0 1.043 0.207 1.43 0.62 0.38 0.42 0.57 0.897 0.57 1.43v0c0 0.2-0.023 0.41-0.07 0.63-0.053 0.213-0.147 0.42-0.28 0.62v0l-11.6 16.15 0.65-2.45v16.15c0 0.567-0.19 1.05-0.57 1.45-0.387 0.4-0.847 0.6-1.38 0.6v0c-0.6 0-1.09-0.2-1.47-0.6-0.387-0.4-0.58-0.883-0.58-1.45v0-15.75l0.35 1.3-11.25-15.2c-0.2-0.267-0.34-0.527-0.42-0.78-0.087-0.247-0.13-0.487-0.13-0.72v0c0-0.567 0.233-1.043 0.7-1.43 0.467-0.38 0.933-0.57 1.4-0.57v0c0.667 0 1.217 0.317 1.65 0.95v0l10.35 14.2-0.95-0.15 9.95-14c0.433-0.667 0.983-1 1.65-1z" fill="#ffffff" fill-rule="nonzero" stroke="none" stroke-width="1" stroke-linecap="butt" stroke-linejoin="miter" stroke-miterlimit="10" stroke-dasharray="" stroke-dashoffset="0" font-family="none" font-weight="none" font-size="none" text-anchor="none" style="mix-blend-mode: normal" data-fill-palette-color="quaternary" opacity="1"></path><path transform="translate(96.8,39)" d="M6.7 0v0c-0.633 0-1.173-0.2-1.62-0.6-0.453-0.4-0.68-0.883-0.68-1.45v0-30.95c0-0.567 0.193-1.043 0.58-1.43 0.38-0.38 0.853-0.57 1.42-0.57v0h13.8c1.867 0 3.55 0.423 5.05 1.27 1.5 0.853 2.693 2.02 3.58 3.5 0.88 1.487 1.32 3.197 1.32 5.13v0c0 1.4-0.267 2.707-0.8 3.92-0.533 1.22-1.267 2.27-2.2 3.15-0.933 0.887-2 1.563-3.2 2.03v0l-1.1-0.8c1.133 0.267 2.15 0.74 3.05 1.42 0.9 0.687 1.633 1.553 2.2 2.6 0.567 1.053 0.867 2.28 0.9 3.68v0c0.067 1.233 0.15 2.217 0.25 2.95 0.1 0.733 0.25 1.31 0.45 1.73 0.2 0.413 0.483 0.737 0.85 0.97v0c0.467 0.3 0.777 0.7 0.93 1.2 0.147 0.5 0.053 0.983-0.28 1.45v0c-0.2 0.3-0.483 0.507-0.85 0.62-0.367 0.12-0.733 0.163-1.1 0.13-0.367-0.033-0.683-0.133-0.95-0.3v0c-0.533-0.3-1.05-0.743-1.55-1.33-0.5-0.58-0.917-1.42-1.25-2.52-0.333-1.1-0.5-2.6-0.5-4.5v0c0-1.067-0.167-1.95-0.5-2.65-0.333-0.7-0.783-1.267-1.35-1.7-0.567-0.433-1.2-0.733-1.9-0.9-0.7-0.167-1.417-0.25-2.15-0.25v0h-11.15l0.6-0.9v13.05c0 0.567-0.167 1.05-0.5 1.45-0.333 0.4-0.783 0.6-1.35 0.6zM8.55-16.9l-0.6-0.9h12.25c0.967-0.067 1.877-0.4 2.73-1 0.847-0.6 1.547-1.443 2.1-2.53 0.547-1.08 0.82-2.303 0.82-3.67v0c0-1.767-0.557-3.233-1.67-4.4-1.12-1.167-2.53-1.75-4.23-1.75v0h-11.8l0.4-0.95zM42.35-32.95v30.9c0 0.567-0.207 1.05-0.62 1.45-0.42 0.4-0.913 0.6-1.48 0.6v0c-0.633 0-1.133-0.2-1.5-0.6-0.367-0.4-0.55-0.883-0.55-1.45v0-30.9c0-0.6 0.2-1.093 0.6-1.48 0.4-0.38 0.9-0.57 1.5-0.57v0c0.567 0 1.05 0.19 1.45 0.57 0.4 0.387 0.6 0.88 0.6 1.48zM62 0v0c-0.6 0-1.1-0.2-1.5-0.6-0.4-0.4-0.6-0.883-0.6-1.45v0-30.9h4.25v30.9c0 0.567-0.2 1.05-0.6 1.45-0.4 0.4-0.917 0.6-1.55 0.6zM73.65-31.2h-23.25c-0.567 0-1.04-0.177-1.42-0.53-0.387-0.347-0.58-0.803-0.58-1.37v0c0-0.567 0.193-1.027 0.58-1.38 0.38-0.347 0.853-0.52 1.42-0.52v0h23.25c0.567 0 1.05 0.173 1.45 0.52 0.4 0.353 0.6 0.813 0.6 1.38v0c0 0.6-0.2 1.067-0.6 1.4-0.4 0.333-0.883 0.5-1.45 0.5zM106.5-35.05v0c0.567 0 1.033 0.2 1.4 0.6 0.367 0.4 0.55 0.883 0.55 1.45v0 19.85c0 2.567-0.59 4.867-1.77 6.9-1.187 2.033-2.78 3.64-4.78 4.82-2 1.187-4.267 1.78-6.8 1.78v0c-2.567 0-4.857-0.593-6.87-1.78-2.02-1.18-3.613-2.787-4.78-4.82-1.167-2.033-1.75-4.333-1.75-6.9v0-19.85c0-0.567 0.193-1.05 0.58-1.45 0.38-0.4 0.887-0.6 1.52-0.6v0c0.533 0 1.01 0.2 1.43 0.6 0.413 0.4 0.62 0.883 0.62 1.45v0 19.85c0 1.833 0.417 3.467 1.25 4.9 0.833 1.433 1.96 2.557 3.38 3.37 1.413 0.82 2.953 1.23 4.62 1.23v0c1.7 0 3.267-0.41 4.7-1.23 1.433-0.813 2.593-1.937 3.48-3.37 0.88-1.433 1.32-3.067 1.32-4.9v0-19.85c0-0.567 0.167-1.05 0.5-1.45 0.333-0.4 0.8-0.6 1.4-0.6zM127.7-29.85l1.1 0.05-11.75 28.6c-0.133 0.4-0.367 0.717-0.7 0.95-0.333 0.233-0.683 0.35-1.05 0.35v0c-0.633 0-1.1-0.167-1.4-0.5-0.3-0.333-0.45-0.733-0.45-1.2v0c-0.033-0.233 0-0.483 0.1-0.75v0l12.95-31.5c0.167-0.467 0.427-0.81 0.78-1.03 0.347-0.213 0.737-0.303 1.17-0.27v0c0.433 0 0.827 0.117 1.18 0.35 0.347 0.233 0.587 0.55 0.72 0.95v0l12.9 31.2c0.1 0.267 0.15 0.533 0.15 0.8v0c0 0.6-0.2 1.073-0.6 1.42-0.4 0.353-0.85 0.53-1.35 0.53v0c-0.4 0-0.767-0.117-1.1-0.35-0.333-0.233-0.583-0.567-0.75-1v0zM136.85-9.35h-17.3l1.7-3.9h14.85zM152.05-3.95h16.15c0.567 0 1.05 0.19 1.45 0.57 0.4 0.387 0.6 0.863 0.6 1.43v0c0 0.567-0.2 1.033-0.6 1.4-0.4 0.367-0.883 0.55-1.45 0.55v0h-17.3c-0.567 0-1.043-0.2-1.43-0.6-0.38-0.4-0.57-0.883-0.57-1.45v0-30.95c0-0.567 0.2-1.043 0.6-1.43 0.4-0.38 0.9-0.57 1.5-0.57v0c0.567 0 1.05 0.19 1.45 0.57 0.4 0.387 0.6 0.863 0.6 1.43v0 29.95zM186.2 0.5v0c-2.467 0-4.633-0.367-6.5-1.1-1.867-0.733-3.667-1.9-5.4-3.5v0c-0.233-0.233-0.427-0.493-0.58-0.78-0.147-0.28-0.22-0.587-0.22-0.92v0c0-0.533 0.19-1.01 0.57-1.43 0.387-0.413 0.863-0.62 1.43-0.62v0c0.467 0 0.883 0.183 1.25 0.55v0c1.3 1.267 2.707 2.233 4.22 2.9 1.52 0.667 3.23 1 5.13 1v0c1.467 0 2.79-0.233 3.97-0.7 1.187-0.467 2.13-1.117 2.83-1.95 0.7-0.833 1.05-1.8 1.05-2.9v0c-0.033-1.333-0.423-2.433-1.17-3.3-0.753-0.867-1.79-1.593-3.11-2.18-1.313-0.58-2.837-1.07-4.57-1.47v0c-1.533-0.367-2.94-0.817-4.22-1.35-1.287-0.533-2.397-1.193-3.33-1.98-0.933-0.78-1.657-1.73-2.17-2.85-0.52-1.113-0.78-2.42-0.78-3.92v0c0-1.9 0.5-3.567 1.5-5 1-1.433 2.383-2.543 4.15-3.33 1.767-0.78 3.8-1.17 6.1-1.17v0c2.033 0 3.96 0.333 5.78 1 1.813 0.667 3.27 1.583 4.37 2.75v0c0.667 0.633 1 1.25 1 1.85v0c0 0.5-0.207 0.957-0.62 1.37-0.42 0.42-0.897 0.63-1.43 0.63v0c-0.367 0-0.7-0.133-1-0.4v0c-0.567-0.633-1.283-1.2-2.15-1.7-0.867-0.5-1.817-0.9-2.85-1.2-1.033-0.3-2.067-0.45-3.1-0.45v0c-1.533 0-2.883 0.223-4.05 0.67-1.167 0.453-2.077 1.087-2.73 1.9-0.647 0.82-0.97 1.797-0.97 2.93v0c0 1.267 0.367 2.307 1.1 3.12 0.733 0.82 1.717 1.487 2.95 2 1.233 0.52 2.6 0.98 4.1 1.38v0c1.633 0.4 3.143 0.857 4.53 1.37 1.38 0.52 2.57 1.163 3.57 1.93 1 0.767 1.777 1.74 2.33 2.92 0.547 1.187 0.82 2.647 0.82 4.38v0c0 1.833-0.517 3.467-1.55 4.9-1.033 1.433-2.443 2.557-4.23 3.37-1.78 0.82-3.787 1.247-6.02 1.28z" fill="#ffffff" fill-rule="nonzero" stroke="none" stroke-width="1" stroke-linecap="butt" stroke-linejoin="miter" stroke-miterlimit="10" stroke-dasharray="" stroke-dashoffset="0" font-family="none" font-weight="none" font-size="none" text-anchor="none" style="mix-blend-mode: normal" data-fill-palette-color="quaternary" opacity="1"></path></g></svg></g></svg></g></svg></g></svg></g><g transform="matrix(1,0,0,1,36.85044448847303,0)"><svg viewBox="0 0 139.45755225021105 237.3721831665561" height="237.3721831665561" width="139.45755225021105"><g><svg xmlns="http://www.w3.org/2000/svg" xmlns:xlink="http://www.w3.org/1999/xlink" version="1.1" x="0" y="0" viewBox="20.625 0.0010000461336256983 58.75 99.99899995386637" enable-background="new 0 0 100 100" xml:space="preserve" height="237.3721831665561" width="139.45755225021105" class="icon-icon-0" data-fill-palette-color="quaternary" id="icon-0"><g fill="#ffffff" data-fill-palette-color="quaternary"><path d="M32.28 13.457c0-4.125 16.033-6.49-5.97-6.49v38.082c2.402 0 4.371 0.042 5.976 0.12L32.28 13.457z" fill="#ffffff" data-fill-palette-color="quaternary"></path><path d="M79.375 15.753H52.67c-10.12 0-15.653-0.382-18.316-1.019v36.228c0 2.874 4.258 2.874 19.763 2.874h25.258l-5.169-19.041L79.375 15.753z" fill="#ffffff" data-fill-palette-color="quaternary"></path></g><rect x="22.176" y="6.967" width="2.067" height="93.033" fill="#ffffff" data-fill-palette-color="quaternary"></rect><circle cx="23.209" cy="2.585" r="2.6" fill="#ffffff" data-fill-palette-color="quaternary"></circle></svg></g></svg></g><g></g></svg></g></svg></g></svg></g></svg></g><defs></defs></svg><rect width="333.90454557049503" height="333.90454557049503" fill="none" stroke="none" visibility="hidden"></rect></g></svg></g></svg>