<svg xmlns="http://www.w3.org/2000/svg" version="1.1" xmlns:xlink="http://www.w3.org/1999/xlink" xmlns:svgjs="http://svgjs.dev/svgjs" width="128" height="128" viewBox="0 0 128 128"><g transform="matrix(0.47465437788018433,0,0,0.47465437788018433,33.682292752071746,12.760752631578946)"><svg viewBox="0 0 56 95" data-background-color="#ffffff" preserveAspectRatio="xMidYMid meet" height="217" width="128" xmlns="http://www.w3.org/2000/svg" xmlns:xlink="http://www.w3.org/1999/xlink"><g id="tight-bounds" transform="matrix(1,0,0,1,-0.040185684792803045,-0.24049999999999727)"><svg viewBox="0 0 56.09564848236378 95.481" height="95.481" width="56.09564848236378"><g><svg viewBox="0 0 56.09564848236378 95.481" height="95.481" width="56.09564848236378"><g><svg viewBox="0 0 56.09564848236378 95.481" height="95.481" width="56.09564848236378"><g id="textblocktransform"><svg viewBox="0 0 56.09564848236378 95.481" height="95.481" width="56.09564848236378" id="textblock"><g><svg viewBox="0 0 56.09564848236378 95.481" height="95.481" width="56.09564848236378"><g><svg viewBox="0 0 56.09564848236378 95.481" height="95.481" width="56.09564848236378"><g><svg xmlns="http://www.w3.org/2000/svg" xmlns:xlink="http://www.w3.org/1999/xlink" version="1.1" x="0" y="0" viewBox="20.625 0.0010000461336256983 58.75 99.99899995386637" enable-background="new 0 0 100 100" xml:space="preserve" height="95.481" width="56.09564848236378" class="icon-icon-0" data-fill-palette-color="accent" id="icon-0"><g fill="#e36b4b" data-fill-palette-color="accent"><path d="M32.28 13.457c0-4.125 16.033-6.49-5.97-6.49v38.082c2.402 0 4.371 0.042 5.976 0.12L32.28 13.457z" fill="#e36b4b" data-fill-palette-color="accent"></path><path d="M79.375 15.753H52.67c-10.12 0-15.653-0.382-18.316-1.019v36.228c0 2.874 4.258 2.874 19.763 2.874h25.258l-5.169-19.041L79.375 15.753z" fill="#e36b4b" data-fill-palette-color="accent"></path></g><rect x="22.176" y="6.967" width="2.067" height="93.033" fill="#e36b4b" data-fill-palette-color="accent"></rect><circle cx="23.209" cy="2.585" r="2.6" fill="#e36b4b" data-fill-palette-color="accent"></circle></svg></g></svg></g></svg></g></svg></g></svg></g></svg></g><defs></defs></svg><rect width="56.09564848236378" height="95.481" fill="none" stroke="none" visibility="hidden"></rect></g></svg></g></svg>